<?xml version="1.0" standalone="no"?>
<!DOCTYPE svg PUBLIC "-//W3C//DTD SVG 20010904//EN"
 "http://www.w3.org/TR/2001/REC-SVG-20010904/DTD/svg10.dtd">
<svg version="1.0" xmlns="http://www.w3.org/2000/svg"
 width="700.000000pt" height="700.000000pt" viewBox="0 0 700.000000 700.000000"
 preserveAspectRatio="xMidYMid meet">
<metadata>
Created by potrace 1.14, written by Peter Selinger 2001-2017
</metadata>
<g transform="translate(0.000000,700.000000) scale(0.100000,-0.100000)"
fill="#000000" stroke="none">
<path d="M3430 6868 c-19 -21 -20 -34 -20 -330 0 -169 -3 -309 -7 -309 -5 -1
-26 -2 -48 -4 -54 -3 -205 -16 -230 -21 -11 -2 -40 -6 -65 -9 -25 -3 -67 -9
-95 -15 -27 -5 -62 -11 -76 -14 -14 -2 -87 -20 -162 -40 -445 -117 -850 -330
-1217 -641 -82 -69 -312 -308 -387 -402 -85 -106 -228 -317 -280 -413 -37 -67
-114 -221 -138 -275 -69 -153 -172 -481 -199 -635 -22 -129 -24 -145 -38 -260
-14 -119 -17 -482 -5 -610 39 -418 170 -840 373 -1203 299 -535 759 -975 1302
-1246 174 -87 436 -190 552 -216 8 -2 62 -15 120 -29 58 -14 119 -27 135 -30
60 -10 91 -15 144 -21 30 -4 62 -8 72 -10 114 -22 584 -23 696 -1 12 3 46 7
75 10 29 4 64 9 78 12 14 3 36 7 50 9 170 25 470 118 679 209 716 314 1306
922 1598 1646 74 181 142 409 169 560 14 75 24 141 30 185 3 28 8 59 10 70 6
31 17 254 17 340 0 79 -11 272 -18 330 -2 16 -7 52 -10 80 -6 46 -27 165 -40
225 -3 14 -7 36 -10 50 -22 117 -107 380 -172 530 -32 73 -145 294 -164 322
-78 109 -270 112 -351 4 -37 -49 -46 -80 -44 -142 1 -52 11 -78 83 -224 115
-231 176 -404 228 -642 13 -64 27 -138 30 -165 3 -26 9 -82 14 -123 10 -78 7
-488 -3 -550 -7 -37 -22 -129 -32 -195 -8 -54 -59 -250 -83 -322 -154 -453
-406 -833 -762 -1148 -59 -52 -69 -60 -134 -111 -52 -40 -220 -153 -265 -178
-19 -11 -53 -30 -75 -42 -116 -66 -279 -136 -444 -190 -73 -24 -143 -46 -155
-48 -11 -3 -64 -14 -116 -24 -173 -37 -336 -54 -526 -55 -94 -1 -313 12 -324
18 -3 2 -30 6 -61 9 -117 12 -358 73 -519 131 -232 83 -518 241 -710 394 -119
94 -291 259 -381 366 -19 22 -36 42 -39 45 -26 24 -175 236 -225 321 -46 79
-134 257 -169 341 -29 71 -85 231 -92 263 -1 6 -11 44 -22 85 -11 41 -23 93
-27 115 -5 22 -10 47 -11 55 -41 187 -51 644 -19 820 2 14 9 57 15 95 112 713
567 1385 1207 1784 118 73 376 201 405 201 8 0 18 4 24 8 22 21 328 112 424
127 19 3 46 8 60 10 58 12 75 15 129 20 31 4 66 8 78 10 12 2 51 5 85 6 l63 3
5 -313 5 -313 24 -19 c27 -22 44 -24 74 -8 12 7 208 197 435 424 325 325 413
419 418 445 7 31 -4 42 -422 461 -388 388 -432 429 -461 429 -20 0 -40 -8 -53
-22z"/>
<path d="M3388 4405 c-2 -1 -26 -5 -55 -9 -228 -27 -432 -113 -572 -241 -88
-81 -179 -238 -195 -335 -17 -104 -18 -130 -5 -131 49 -4 562 -3 568 1 3 3 7
19 8 37 2 44 34 112 71 155 52 59 118 81 247 85 236 6 367 -71 424 -249 11
-33 18 -224 9 -233 -1 -1 -129 -5 -283 -9 -281 -5 -308 -7 -401 -26 -28 -6
-62 -13 -76 -15 -103 -19 -257 -83 -344 -143 -182 -125 -276 -306 -283 -548
-5 -173 70 -357 194 -477 147 -142 357 -219 595 -219 138 0 187 7 296 43 107
35 184 79 269 154 l62 54 17 -67 c27 -111 46 -152 70 -153 27 -1 547 -1 565 0
16 1 13 13 -28 131 -16 47 -32 105 -35 130 -4 25 -9 65 -12 90 -4 25 -7 326
-8 670 -3 671 -3 676 -56 811 -79 200 -249 349 -495 434 -27 9 -61 19 -75 21
-14 3 -32 7 -40 9 -8 3 -32 7 -54 11 -21 3 -48 8 -60 11 -22 5 -313 13 -318 8z
m503 -1290 c1 -27 1 -300 0 -347 -1 -58 -90 -147 -195 -197 -99 -48 -163 -63
-264 -64 -101 0 -146 8 -209 39 -118 57 -167 195 -121 343 16 51 30 74 70 113
76 74 157 108 296 124 31 3 58 7 59 8 1 0 83 1 182 1 174 0 181 -1 182 -20z"/>
</g>
</svg>
