<?xml version="1.0" encoding="utf-8"?>
<!-- Generator: Adobe Illustrator 26.0.2, SVG Export Plug-In . SVG Version: 6.00 Build 0)  -->
<svg version="1.1" id="Layer_1" xmlns="http://www.w3.org/2000/svg" xmlns:xlink="http://www.w3.org/1999/xlink" x="0px" y="0px"
	 viewBox="0 0 152.3 152.3" style="enable-background:new 0 0 152.3 152.3;" xml:space="preserve">
<style type="text/css">
	.st0{fill:#222326;}
</style>
<g>
	<path class="st0" d="M86.6,106.8c-0.3-0.7-0.6-1.4-0.8-2.1c-0.2-0.8-0.4-1.7-0.6-2.5c-0.7,0.8-1.6,1.5-2.4,2.2
		c-0.9,0.7-1.9,1.3-3,1.8c-1.2,0.5-2.5,0.9-3.7,1.2c-1.4,0.3-2.9,0.4-4.3,0.4c-2.4,0-4.7-0.3-7-1.1c-2-0.7-3.9-1.7-5.5-3.1
		c-3.1-2.6-4.9-6.5-4.9-10.6c0-5.2,1.9-9.3,5.8-12.1s9.7-4.3,17.4-4.3h7.1v-2.9c0.1-2.1-0.8-4.2-2.3-5.7c-1.6-1.4-3.8-2.1-6.7-2.1
		c-2.6,0-4.5,0.5-5.7,1.7c-1.2,1.2-1.9,2.8-1.8,4.5H55.5c0-2.1,0.5-4.1,1.4-6c1-1.9,2.4-3.7,4.1-5c2-1.5,4.2-2.7,6.5-3.4
		c2.9-0.9,5.9-1.3,8.9-1.3c2.8,0,5.6,0.3,8.4,1.1c2.4,0.7,4.7,1.8,6.7,3.3c1.9,1.4,3.5,3.3,4.5,5.5c1.1,2.4,1.7,5,1.6,7.6v21.3
		c0,2.2,0.1,4.4,0.5,6.6c0.3,1.6,0.8,3.1,1.5,4.5v0.8H86.6z M74.4,97.8c1.2,0,2.4-0.1,3.5-0.4c1-0.3,2-0.7,3-1.2
		c0.8-0.4,1.6-1,2.3-1.7c0.6-0.6,1.1-1.2,1.5-1.9v-8.5h-6.5c-1.7,0-3.4,0.2-5.1,0.6c-1.2,0.3-2.4,0.8-3.4,1.6
		c-0.9,0.6-1.6,1.5-2,2.5c-0.4,1-0.7,2.1-0.6,3.1c0,1.6,0.6,3.2,1.8,4.3C70.2,97.3,72,97.8,74.4,97.8z"/>
</g>
<g>
	<path class="st0" d="M76.3,149.8c-36.7,0-66.5-29.8-66.5-66.5s29.8-66.5,66.5-66.5c2.7,0,4.8,2.2,4.8,4.8s-2.2,4.8-4.8,4.8
		c-31.4,0-56.9,25.5-56.9,56.9c0,31.4,25.5,56.9,56.9,56.9c31.4,0,56.9-25.5,56.9-56.9c0-9.9-2.6-19.6-7.5-28.2
		c-1.3-2.3-0.5-5.3,1.8-6.6c2.3-1.3,5.3-0.5,6.6,1.8c5.7,10,8.7,21.4,8.7,33C142.8,120,113,149.8,76.3,149.8z"/>
</g>
<g>
	<path class="st0" d="M74.2,3.9v35.4c0,1.4,1.7,2.1,2.7,1.1l17.7-17.7c0.6-0.6,0.6-1.6,0-2.2L76.9,2.8C75.9,1.8,74.2,2.5,74.2,3.9z"
		/>
</g>
</svg>
